<?xml version="1.0" encoding="UTF-8"?>
<svg id="_レイヤー_1" data-name="レイヤー 1" xmlns="http://www.w3.org/2000/svg" viewBox="0 0 195.39 88.96">
  <defs>
    <style>
      .cls-1 {
        fill: #9f0000;
      }

      .cls-2 {
        fill: none;
        stroke: #9f0000;
        stroke-miterlimit: 10;
        stroke-width: 3px;
      }
    </style>
  </defs>
  <g>
    <path class="cls-2" d="M29.22,53.51c6.93-14.72,19.91-26.14,35.53-30.8,16.41-4.89,34.68-2.27,48.9,7.32,7.96,5.37,14.56,12.73,19.01,21.24"/>
    <line class="cls-2" x1="42.42" y1="36.18" x2="42.42" y2="53.42"/>
    <line class="cls-2" x1="54.94" y1="27.02" x2="55.2" y2="52.62"/>
    <line class="cls-2" x1="69.3" y1="21.32" x2="69.56" y2="46.93"/>
    <path class="cls-2" d="M169.47,51.52c-15.15-30.26-55.86-42.06-83.98-22.03-8.06,5.74-14.37,13.74-18.93,22.46"/>
    <line class="cls-2" x1="144.55" y1="26.77" x2="144.54" y2="52.91"/>
    <line class="cls-2" x1="130.19" y1="20.83" x2="130.18" y2="46.97"/>
    <line class="cls-2" x1="157.17" y1="34.94" x2="157.27" y2="52.23"/>
  </g>
  <line class="cls-2" x1="22.51" y1="52.74" x2="175.23" y2="51.26"/>
  <line class="cls-2" x1="22.51" y1="60.3" x2="175.23" y2="58.83"/>
  <rect class="cls-1" x="44.53" y="60.86" width="8.82" height="16.03"/>
  <rect class="cls-1" x="146.64" y="59.91" width="8.82" height="16.03"/>
</svg>