<?xml version="1.0" encoding="UTF-8"?>
<svg id="_レイヤー_1" data-name="レイヤー 1" xmlns="http://www.w3.org/2000/svg" viewBox="0 0 482.09 69.65">
  <defs>
    <style>
      .cls-1 {
        fill: #e86029;
      }

      .cls-2 {
        fill: #9f0000;
      }

      .cls-3, .cls-4 {
        font-family: UDDigiKyokashoNK-Bold, 'UD Digi Kyokasho NK';
        font-size: 36px;
        font-weight: 700;
      }

      .cls-4 {
        letter-spacing: .02em;
      }

      .cls-5 {
        fill: none;
        stroke: #9f0000;
        stroke-miterlimit: 10;
        stroke-width: 3px;
      }
    </style>
  </defs>
  <text class="cls-4" transform="translate(119.83 51.04)"><tspan x="0" y="0">お仕事紹</tspan></text>
  <text class="cls-3" transform="translate(318.78 50.04)"><tspan x="0" y="0">マッチング</tspan></text>
  <g>
    <circle class="cls-1" cx="290.77" cy="17.01" r="7.88"/>
    <path class="cls-1" d="M285.45,22.76c-1.24,2.49-6.36,5.64-9.29,5.54-.5-.02-.68-.02-1.31-.48-.42-.31-.77-.75-1.1-1.14-.6-.71.06-.43-.54.15,2.79-2.68-1.46-6.92-4.24-4.24-3.96,3.8.35,9.41,4.22,11.26,2.92,1.39,6.17-.09,8.94-1.26,3.3-1.39,6.87-3.48,8.51-6.8s-3.46-6.49-5.18-3.03h0Z"/>
    <path class="cls-1" d="M290.31,26.25c4.7,5.04,10.73,8.5,17.46,9.99,3.76.84,5.37-4.95,1.6-5.79-5.79-1.29-10.76-4.12-14.81-8.45-2.64-2.83-6.88,1.42-4.24,4.24h0Z"/>
    <path class="cls-1" d="M283.07,27.79c-.67,3.5-1.23,7.04-2.11,10.49-.74,2.91-3.35,3.82-5.76,5.28-3.3,1.99-.29,7.18,3.03,5.18,2.72-1.64,6.08-3.14,7.6-6.11,1.97-3.84,2.22-9.06,3.02-13.25.72-3.77-5.06-5.39-5.79-1.6h0Z"/>
    <path class="cls-1" d="M292.25,28.74c.18,4.41,1.28,10.18-.37,14.39-2.04,5.22-7.83,7.06-12.91,7.54-3.81.36-3.85,6.36,0,6,6.21-.59,12.41-2.45,16.35-7.61,4.43-5.81,3.22-13.49,2.94-20.31-.16-3.85-6.16-3.87-6,0h0Z"/>
    <circle class="cls-1" cx="309.36" cy="32.19" r="3.9"/>
  </g>
  <g>
    <g>
      <path class="cls-5" d="M10.04,38.97c4.76-10.12,13.69-17.96,24.42-21.16,11.28-3.36,23.83-1.56,33.61,5.03,5.47,3.69,10.01,8.75,13.06,14.6"/>
      <line class="cls-5" x1="19.12" y1="27.06" x2="19.12" y2="38.91"/>
      <line class="cls-5" x1="27.72" y1="20.77" x2="27.9" y2="38.36"/>
      <line class="cls-5" x1="37.59" y1="16.86" x2="37.76" y2="34.45"/>
      <path class="cls-5" d="M106.43,37.61c-10.41-20.79-38.39-28.9-57.72-15.14-5.54,3.94-9.88,9.44-13.01,15.44"/>
      <line class="cls-5" x1="89.3" y1="20.6" x2="89.3" y2="38.56"/>
      <line class="cls-5" x1="79.43" y1="16.52" x2="79.43" y2="34.48"/>
      <line class="cls-5" x1="97.97" y1="26.21" x2="98.04" y2="38.09"/>
    </g>
    <line class="cls-5" x1="5.43" y1="38.44" x2="110.38" y2="37.43"/>
    <line class="cls-5" x1="5.43" y1="43.64" x2="110.38" y2="42.63"/>
    <rect class="cls-2" x="20.57" y="44.02" width="6.06" height="11.02"/>
    <rect class="cls-2" x="90.74" y="43.37" width="6.06" height="11.02"/>
  </g>
</svg>