<?xml version="1.0" encoding="UTF-8"?>
<svg id="_レイヤー_1" data-name="レイヤー 1" xmlns="http://www.w3.org/2000/svg" viewBox="0 0 489.91 234.4">
  <defs>
    <style>
      .cls-1 {
        fill: #e86029;
      }

      .cls-2 {
        font-size: 85.01px;
      }

      .cls-2, .cls-3 {
        font-family: UDDigiKyokashoNK-Bold, 'UD Digi Kyokasho NK';
        font-weight: 700;
      }

      .cls-3 {
        font-size: 68px;
      }
    </style>
  </defs>
  <text class="cls-2" transform="translate(9.39 118.11)"><tspan x="0" y="0">お仕事紹</tspan></text>
  <g>
    <circle class="cls-1" cx="418.41" cy="30.96" r="21.6"/>
    <path class="cls-1" d="M405.12,49.27c-1.96,4.71-9.13,8.13-13.41,10.22-2.53,1.23-5.15,2.23-7.83,3.1-1.68.55-5.82,2.14-6.68,2.12-1.15-.03-4.52-2.83-5.96-4.33-1-1.04-1.6-2.54-2.57-3.51-.15-.15-.31-.95-.3-.9.12.61-1.16,1.57.27.34,5.87-5.03-2.65-13.49-8.49-8.49-10.81,9.26,3.46,25.1,13.13,28.19,7.08,2.26,16.63-2.54,22.98-5.46,8.31-3.82,16.81-9.42,20.43-18.1,2.97-7.12-8.64-10.23-11.57-3.19h0Z"/>
    <path class="cls-1" d="M418.72,54.72c12.47,13.54,28.88,22.95,46.87,26.83,7.53,1.62,10.75-9.94,3.19-11.57-16.15-3.48-30.39-11.58-41.58-23.74-5.24-5.69-13.71,2.81-8.49,8.49h0Z"/>
    <path class="cls-1" d="M399.43,61.11c-2,10.5-3.49,21.3-6.51,31.57-1.96,6.68-10.6,9.62-16.08,12.99-6.57,4.03-.55,14.42,6.06,10.36,7.01-4.3,16.21-8.12,20.09-15.88,2.49-4.98,3.26-11.18,4.33-16.59,1.27-6.41,2.46-12.84,3.69-19.26,1.44-7.55-10.12-10.78-11.57-3.19h0Z"/>
    <path class="cls-1" d="M424.11,63.12c.31,7.64.68,15.28.82,22.92.13,7.21-.06,14.65-3.75,21.06-7.14,12.42-21.62,17.29-35.15,18.36-7.65.61-7.71,12.61,0,12,16.99-1.35,33.91-7.25,43.93-21.8,10.34-15.02,6.85-35.43,6.15-52.54-.32-7.69-12.32-7.73-12,0h0Z"/>
    <circle class="cls-1" cx="469.35" cy="72.57" r="10.68"/>
  </g>
  <text class="cls-3" transform="translate(95.48 215.18)"><tspan x="0" y="0">マッチング</tspan></text>
</svg>