<?xml version="1.0" encoding="UTF-8"?>
<svg id="_レイヤー_1" data-name="レイヤー 1" xmlns="http://www.w3.org/2000/svg" viewBox="0 0 240 211.83">
  <defs>
    <style>
      .cls-1 {
        fill: #e86029;
      }

      .cls-2 {
        fill: #9f0000;
      }

      .cls-3 {
        font-size: 35px;
      }

      .cls-3, .cls-4 {
        font-family: UDDigiKyokashoNK-Bold, 'UD Digi Kyokasho NK';
        font-weight: 700;
      }

      .cls-5 {
        fill: none;
        stroke: #9f0000;
        stroke-miterlimit: 10;
        stroke-width: 3px;
      }

      .cls-4 {
        font-size: 45.54px;
      }
    </style>
  </defs>
  <text class="cls-4" transform="translate(6.93 140.95)"><tspan x="0" y="0">お仕事紹</tspan></text>
  <text class="cls-3" transform="translate(43.06 192.39)"><tspan x="0" y="0">マッチング</tspan></text>
  <g>
    <circle class="cls-1" cx="212.88" cy="105.76" r="7.88"/>
    <path class="cls-1" d="M207.56,111.51c-1.24,2.49-6.36,5.64-9.29,5.54-.5-.02-.68-.02-1.31-.48-.42-.31-.77-.75-1.1-1.14-.6-.71.06-.43-.54.15,2.79-2.68-1.46-6.92-4.24-4.24-3.96,3.8.35,9.41,4.22,11.26,2.92,1.39,6.17-.09,8.94-1.26,3.3-1.39,6.87-3.48,8.51-6.8s-3.46-6.49-5.18-3.03h0Z"/>
    <path class="cls-1" d="M212.42,115c4.7,5.04,10.73,8.5,17.46,9.99,3.76.84,5.37-4.95,1.6-5.79-5.79-1.29-10.76-4.12-14.81-8.45-2.64-2.83-6.88,1.42-4.24,4.24h0Z"/>
    <path class="cls-1" d="M205.18,116.54c-.67,3.5-1.23,7.04-2.11,10.49-.74,2.91-3.35,3.82-5.76,5.28-3.3,1.99-.29,7.18,3.03,5.18,2.72-1.64,6.08-3.14,7.6-6.11,1.97-3.84,2.22-9.06,3.02-13.25.72-3.77-5.06-5.39-5.79-1.6h0Z"/>
    <path class="cls-1" d="M214.36,117.49c.18,4.41,1.28,10.18-.37,14.39-2.04,5.22-7.83,7.06-12.91,7.54-3.81.36-3.85,6.36,0,6,6.21-.59,12.41-2.45,16.35-7.61,4.43-5.81,3.22-13.49,2.94-20.31-.16-3.85-6.16-3.87-6,0h0Z"/>
    <circle class="cls-1" cx="231.46" cy="120.94" r="3.9"/>
  </g>
  <g>
    <g>
      <path class="cls-5" d="M50.35,51.95c6.93-14.72,19.91-26.14,35.53-30.8,16.41-4.89,34.68-2.27,48.9,7.32,7.96,5.37,14.56,12.73,19.01,21.24"/>
      <line class="cls-5" x1="63.55" y1="34.61" x2="63.55" y2="51.85"/>
      <line class="cls-5" x1="76.08" y1="25.45" x2="76.33" y2="51.06"/>
      <line class="cls-5" x1="90.43" y1="19.76" x2="90.69" y2="45.36"/>
      <path class="cls-5" d="M190.6,49.96c-15.15-30.26-55.86-42.06-83.98-22.03-8.06,5.74-14.37,13.74-18.93,22.46"/>
      <line class="cls-5" x1="165.68" y1="25.2" x2="165.67" y2="51.35"/>
      <line class="cls-5" x1="151.32" y1="19.26" x2="151.32" y2="45.41"/>
      <line class="cls-5" x1="178.3" y1="33.37" x2="178.4" y2="50.66"/>
    </g>
    <line class="cls-5" x1="43.64" y1="51.17" x2="196.36" y2="49.7"/>
    <line class="cls-5" x1="43.64" y1="58.74" x2="196.36" y2="57.26"/>
    <rect class="cls-2" x="65.66" y="59.29" width="8.82" height="16.03"/>
    <rect class="cls-2" x="167.77" y="58.34" width="8.82" height="16.03"/>
  </g>
</svg>