<?xml version="1.0" encoding="UTF-8"?>
<svg id="_レイヤー_1" data-name="レイヤー 1" xmlns="http://www.w3.org/2000/svg" viewBox="0 0 125.74 134.35">
  <defs>
    <style>
      .cls-1 {
        fill: #e86029;
      }
    </style>
  </defs>
  <circle class="cls-1" cx="67.41" cy="33.63" r="17.22"/>
  <path class="cls-1" d="M56.25,46.47c-1.6,3.69-5.36,5.97-8.78,7.84s-9.05,4.9-12.93,4.85c.15,0,.31.32-.81-.43-.93-.62-1.75-1.24-2.55-2.03s-1.5-1.6-2.1-2.59c-.7-1.17-.13.29-.47.59,5.79-5.13-2.72-13.59-8.49-8.49-9.06,8.03,1.85,20.82,10.06,24.12,5.95,2.39,13.33-1.09,18.82-3.48,6.61-2.88,14.61-7.4,17.61-14.33s-7.3-13.13-10.36-6.06h0Z"/>
  <path class="cls-1" d="M66.8,53.43c10.12,10.94,23.33,18.52,37.9,21.69,7.53,1.64,10.74-9.93,3.19-11.57-12.7-2.76-23.77-9.06-32.6-18.61-5.26-5.68-13.73,2.82-8.49,8.49h0Z"/>
  <path class="cls-1" d="M51.11,57.34c-.86,4.48-1.7,8.97-2.57,13.45-.77,3.98-1.18,8.55-2.78,12.27-1.93,4.48-8.12,6.63-12.1,9.06-6.58,4.02-.56,14.41,6.06,10.36,5.65-3.45,12.7-6.49,16.12-12.5,2.21-3.87,2.84-8.85,3.71-13.16,1.1-5.42,2.09-10.86,3.13-16.3,1.44-7.55-10.12-10.78-11.57-3.19h0Z"/>
  <path class="cls-1" d="M70.74,59.26c.24,5.94.53,11.89.65,17.83.11,5.35.11,10.91-2.38,15.79-5.15,10.09-16.81,13.98-27.4,14.84-7.64.63-7.71,12.63,0,12,14.11-1.16,27.94-6.05,36.2-18.19,8.23-12.11,5.5-28.51,4.93-42.27-.32-7.69-12.32-7.73-12,0h0Z"/>
  <circle class="cls-1" cx="108.01" cy="66.79" r="8.51"/>
</svg>