<?xml version="1.0" encoding="UTF-8"?>
<svg id="_レイヤー_2" data-name="レイヤー 2" xmlns="http://www.w3.org/2000/svg" viewBox="0 0 250 250">
  <defs>
    <style>
      .cls-1 {
        fill: #aed038;
      }
    </style>
  </defs>
  <g id="_レイヤー_1-2" data-name="レイヤー 1">
    <rect class="cls-1" width="250" height="250" rx="15.43" ry="15.43"/>
    <path d="M185.23,39.07c-8.26,22.21-34.49,54.21-60.24,54.23-26.22.03-51.81-31.54-60.23-54.23h120.47ZM122.46,49.56c-19.2,2.1-18.65,29.97-1.12,32.38,27.09,3.72,25.9-35.09,1.12-32.38Z"/>
    <path d="M179.78,94.18c10.71-12.71,19.13-26.83,27.48-41.13.33-.56.92-.9,1.57-.9h17.32c.96,0,1.76-.75,1.82-1.71l.56-9.27c.03-.47-.13-.94-.44-1.3l-.15-.17c-.35-.4-.85-.63-1.38-.63h-23.37c-.63,0-1.21.32-1.55.85-9.77,15.56-18.03,31.99-30.27,45.85-7.27,8.23-29.43,24.72-29.43,35.01v101.32h14.01v-100.39c0-4.17,19.75-22.7,23.83-27.54Z"/>
    <path d="M70.22,94.18c-10.71-12.71-19.13-26.83-27.48-41.13-.33-.56-.92-.9-1.57-.9h-17.32c-.96,0-1.76-.75-1.82-1.71l-.56-9.27c-.03-.47.13-.94.44-1.3l.15-.17c.35-.4.85-.63,1.38-.63h23.37c.63,0,1.21.32,1.55.85,9.77,15.56,18.03,31.99,30.27,45.85,7.27,8.23,29.43,24.72,29.43,35.01v101.32h-14.01v-100.39c0-4.17-19.75-22.7-23.83-27.54Z"/>
  </g>
</svg>